<?xml version="1.0" encoding="utf-8"?>
<!-- Generator: Adobe Illustrator 19.2.1, SVG Export Plug-In . SVG Version: 6.00 Build 0)  -->
<svg version="1.1" id="Layer_1" xmlns="http://www.w3.org/2000/svg" xmlns:xlink="http://www.w3.org/1999/xlink" x="0px" y="0px"
	 viewBox="0 0 22 22" enable-background="new 0 0 22 22" xml:space="preserve">
<g>
	<path fill="#1A1A1A" d="M13.8544922,17.5039062c0.8066406-0.3544922,1.5351562-0.8525391,2.1660156-1.4833984
		c0.6542969-0.6552734,1.1669827-1.4150391,1.5224609-2.2578125C17.9130859,12.8896484,18.0996094,11.9609375,18.0996094,11
		s-0.1865234-1.8896484-0.5566406-2.7626953c-0.3554783-0.84375-0.8681641-1.6035156-1.5234375-2.2578125
		C15.3662109,5.3251953,14.6064453,4.8125,13.7626953,4.4570312C12.8896484,4.0869141,11.9609375,3.9003906,11,3.9003906
		S9.1103516,4.0869141,8.2373047,4.4570312C7.3945312,4.8125,6.6347656,5.3251953,5.9794922,5.9794922
		C5.3251953,6.6347656,4.81249,7.3945312,4.4570312,8.2373047C4.0869141,9.1103516,3.9003906,10.0390625,3.9003906,11
		s0.1865234,1.8896484,0.5566406,2.7626953c0.3554587,0.84375,0.8681641,1.6035156,1.5234375,2.2578125
		c0.6298828,0.6308594,1.3583984,1.1289062,2.1650391,1.4833984l-1.4794922,3.5
		c-1.2617188-0.546875-2.3964844-1.3193359-3.3740234-2.2958984c-1.0009766-1.0019531-1.7871094-2.1669922-2.3359375-3.4658203
		C0.3876953,13.8994141,0.0996094,12.4716797,0.0996094,11s0.2880859-2.8994141,0.8564453-4.2421875
		c0.5488281-1.2988281,1.3349609-2.4638672,2.3359375-3.4658203c1.0019531-1.0009766,2.1669922-1.7871094,3.4658203-2.3359375
		C8.1005859,0.3876953,9.5283203,0.0996094,11,0.0996094s2.8994141,0.2880859,4.2421875,0.8564453
		c1.2988281,0.5488281,2.4638672,1.3349609,3.4658203,2.3359375c1.0009766,1.0019531,1.7871094,2.1669922,2.3359375,3.4658203
		C21.6123047,8.1005859,21.9003906,9.5283203,21.9003906,11s-0.2880859,2.8994141-0.8564453,4.2421875
		c-0.5488281,1.2988281-1.3349609,2.4638672-2.3359375,3.4658203c-0.9775391,0.9765625-2.1123047,1.7490234-3.3740234,2.2958984
		L13.8544922,17.5039062z"/>
	<path d="M11,0.1999969c1.4580383,0,2.872406,0.2855225,4.2037964,0.8486404
		c1.2860413,0.5439529,2.44104,1.3227005,3.4329529,2.3146133c0.9919434,0.9919586,1.7706909,2.1469803,2.3146057,3.4329605
		C21.5144653,8.1275482,21.7999878,9.5419083,21.7999878,11c0,1.4580994-0.2855225,2.8724594-0.8486328,4.2037888
		c-0.5439148,1.2859802-1.3226624,2.4409943-2.3146057,3.4329681c-0.944519,0.9444962-2.0368958,1.6957245-3.2494507,2.2350006
		l-1.40271-3.3164825c0.7837219-0.3572922,1.4916382-0.8491821,2.1065674-1.4641037
		c0.6625061-0.6624985,1.1821594-1.432869,1.5445862-2.2897339c0.3744202-0.8852615,0.56427-1.8277969,0.56427-2.8014374
		c0-0.9736481-0.1898499-1.9161682-0.56427-2.801384c-0.3624268-0.8568878-0.8820801-1.6272888-1.5446167-2.2897949
		c-0.6624451-0.6624527-1.4328003-1.1821213-2.2897034-1.5445709C12.9161682,3.9898376,11.9736328,3.8000031,11,3.8000031
		S9.0838318,3.9898529,8.1985474,4.3642807C7.3416748,4.7266998,6.5713196,5.2463608,5.908844,5.9088287
		c-0.6625061,0.6624985-1.1821594,1.432869-1.5445862,2.2897339C3.9898376,9.0838394,3.7999878,10.0263672,3.7999878,11
		c0,0.9736633,0.1898499,1.9161758,0.56427,2.8013763c0.3624268,0.8568954,0.8820801,1.6272964,1.5446167,2.2898026
		c0.6148987,0.6148987,1.3228149,1.1068039,2.1065674,1.464119l-1.4027405,3.3164673
		c-1.2125549-0.5392838-2.3049316-1.2905121-3.2494507-2.2350082C2.3713074,17.644783,1.5925598,16.489769,1.048645,15.2037888
		C0.4855347,13.8724594,0.2000122,12.4580994,0.2000122,11c0-1.4580917,0.2855225-2.8724518,0.8486328-4.2037888
		C1.5925598,5.510231,2.3713074,4.3552094,3.3632507,3.3632507c0.9919128-0.9919128,2.1469116-1.7706604,3.4329529-2.3146133
		C8.127594,0.4855194,9.5419617,0.1999969,11,0.1999969 M11,0C9.4812317,0,8.0343323,0.3078232,6.7182922,0.8644409
		c-1.3160095,0.5566254-2.5011597,1.3620758-3.49646,2.3573914C2.226532,4.2171402,1.421051,5.4022903,0.8644409,6.7182999
		C0.3078003,8.0343323,0,9.4812088,0,11s0.3078003,2.965683,0.8644409,4.2817001
		c0.5566101,1.3160095,1.3620911,2.5011597,2.3573914,3.4964828c0.9953003,0.9953003,2.1804504,1.8007431,3.49646,2.3573761
		l1.558197-3.6840057c-0.8330383-0.3523636-1.5820618-0.8576431-2.2261963-1.5017929
		c-0.6442261-0.6442108-1.1495056-1.3932343-1.5018311-2.2262878C4.1845398,12.8630829,4,11.9467621,4,11
		s0.1845398-1.8630676,0.5484619-2.7235336c0.3523254-0.8330002,0.857605-1.582016,1.5018005-2.2262192
		c0.644165-0.6441574,1.3931885-1.149437,2.2261963-1.50177C9.1369324,4.1845398,10.0532532,4,11,4
		s1.8630676,0.1845398,2.7235107,0.5484467c0.8330383,0.3523636,1.5820618,0.8576431,2.2261963,1.5017929
		c0.6442261,0.6442108,1.1495056,1.3932266,1.5018311,2.2262878C17.8154602,9.1369324,18,10.0532379,18,11
		s-0.1845398,1.8630829-0.5484619,2.723526c-0.3523254,0.8330002-0.857605,1.5820236-1.5018005,2.2262268
		c-0.644165,0.6441574-1.3931885,1.149437-2.2261963,1.50177l1.5581665,3.6840363
		c1.3160095-0.556633,2.5011597-1.3620758,3.49646-2.3573761c0.9953003-0.9953232,1.8007812-2.1804733,2.3573914-3.4964828
		C21.6921997,13.965683,22,12.5187912,22,11s-0.3078003-2.9656677-0.8644409-4.2817001
		c-0.5566101-1.3160095-1.3620911-2.5011597-2.3573914-3.4964676c-0.9953003-0.9953156-2.1804504-1.800766-3.49646-2.3573914
		C13.9656677,0.3078232,12.5187683,0,11,0L11,0z"/>
</g>
<g>
	<path fill="#CCCCCC" d="M6.6660156,21.0039062c-1.2617188-0.546875-2.3964844-1.3193359-3.3740234-2.2958984
		c-1.0009766-1.0019531-1.7871094-2.1669922-2.3359375-3.4658203C0.3876953,13.8994141,0.0996094,12.4716797,0.0996094,11
		s0.2880859-2.8994141,0.8564453-4.2421875c0.5361328-1.2675781,1.2988281-2.4091797,2.265625-3.3945312l2.6875,2.6875
		c-0.6210938,0.6386719-1.109375,1.3740234-1.4521484,2.1865234C4.0869141,9.1103516,3.9003906,10.0390625,3.9003906,11
		s0.1865234,1.8896484,0.5566406,2.7626953c0.3554587,0.84375,0.8681641,1.6035156,1.5234375,2.2578125
		c0.6298828,0.6308594,1.3583984,1.1289062,2.1650391,1.4833984L6.6660156,21.0039062z"/>
	<path d="M3.223114,3.5059433l2.5462341,2.5462112c-0.5963135,0.6294556-1.068512,1.3506393-1.4050903,2.1464081
		c-0.3744202,0.8852615-0.5642395,1.8278046-0.5642395,2.8014297c0,0.9736557,0.1898193,1.9161835,0.5642395,2.801384
		c0.3623962,0.8568878,0.8820801,1.6272888,1.5446167,2.2898026c0.6148682,0.6148758,1.3227844,1.1067886,2.1065674,1.4641266
		l-1.40271,3.316452c-1.2125854-0.5392609-2.3049622-1.2904892-3.2494812-2.2350006
		c-0.9919434-0.9919815-1.7706909-2.1469879-2.3146057-3.4329681c-0.5631104-1.3313293-0.8486328-2.7456894-0.8486328-4.2037964
		c0-1.4580841,0.2855225-2.8724442,0.8486328-4.2037888C1.5666504,5.5714493,2.29776,4.4653931,3.223114,3.5059433
		 M3.2218323,3.2218246C2.226532,4.2171326,1.421051,5.4022827,0.8644409,6.7182922C0.3078003,8.0343246,0,9.4812088,0,10.9999924
		c0,1.5188065,0.3078003,2.965683,0.8644409,4.2817001c0.5566101,1.3160095,1.3620911,2.5011597,2.3573914,3.4964828
		c0.9953003,0.9953003,2.1804504,1.8007584,3.49646,2.3573837l1.558197-3.6840057
		c-0.8330383-0.3523712-1.5820618-0.8576508-2.2261963-1.5018005c-0.6442261-0.6442108-1.1495056-1.393219-1.5018311-2.2262802
		C4.1845398,12.8630753,4,11.9467621,4,10.9999924c0-0.9467545,0.1845398-1.8630676,0.5484619-2.7235184
		c0.3523254-0.8330078,0.857605-1.5820312,1.5018005-2.2262268L3.2218323,3.2218246L3.2218323,3.2218246z"/>
</g>
<g>
	<g>
		<g>
			
				<rect x="6.4911032" y="1.0469334" transform="matrix(0.7071068 -0.7071068 0.7071068 0.7071068 -3.0030484 7.25)" fill="#FFFFFF" width="1.5177937" height="12.4061337"/>
			<path d="M3.3999939,2.4687805l8.6312256,8.6312218l-0.9312134,0.9312172L2.4687805,3.3999977L3.3999939,2.4687805
				 M3.3999939,2.1859398L2.1859436,3.4000015l8.9140625,8.9140587l1.2140503-1.2140617L3.3999939,2.1859398L3.3999939,2.1859398z"
				/>
		</g>
	</g>
</g>
<circle fill="#E6E6E6" stroke="#000000" stroke-width="0.2" stroke-miterlimit="10" cx="11" cy="11" r="1.5"/>
</svg>
