<?xml version="1.0" encoding="utf-8"?>
<!-- Generator: Adobe Illustrator 19.2.1, SVG Export Plug-In . SVG Version: 6.00 Build 0)  -->
<svg version="1.1" id="Layer_1" xmlns="http://www.w3.org/2000/svg" xmlns:xlink="http://www.w3.org/1999/xlink" x="0px" y="0px"
	 viewBox="0 0 22 22" enable-background="new 0 0 22 22" xml:space="preserve">
<g>
	<path fill="#4D4D4D" d="M6.5605469,20.7392578c-1.1630859-0.53125-2.2148438-1.2617188-3.1269531-2.1728516
		c-0.9833984-0.9853516-1.7548828-2.1293945-2.2929688-3.4018555C0.5830078,13.847168,0.2998047,12.4462891,0.2998047,11
		S0.5830078,8.152832,1.140625,6.8354492C1.6787109,5.5629883,2.4501953,4.4189453,3.4335938,3.434082
		C4.4179688,2.4501953,5.56249,1.6787109,6.8359375,1.140625C8.1533203,0.5830078,9.5537109,0.300293,11,0.300293
		s2.8466797,0.2827148,4.1640625,0.840332c1.273428,0.5380859,2.4179688,1.3095703,3.4023438,2.293457
		c0.9833984,0.9848633,1.7548828,2.1289062,2.2929688,3.4013672C21.4169922,8.152832,21.7001953,9.5537109,21.7001953,11
		s-0.2832031,2.847168-0.8408203,4.1645508c-0.5380859,1.2724609-1.3095703,2.4165039-2.2929688,3.4018555
		c-0.9121094,0.9111328-1.9638672,1.6416016-3.1269531,2.1728516l-1.3251953-3.1337891
		c0.7587891-0.3579102,1.4472656-0.8432617,2.0478516-1.4433594c0.6728516-0.6733398,1.1992188-1.4545898,1.5654297-2.3217773
		C18.1074219,12.9418945,18.2998047,11.9863281,18.2998047,11c0-0.9858398-0.1923828-1.9418945-0.5722656-2.8408203
		c-0.3652344-0.8662109-0.8925781-1.6469727-1.5664062-2.3212891c-0.6708984-0.6713867-1.4521484-1.1982422-2.3203125-1.565918
		C12.9423828,3.8925781,11.9863281,3.699707,11,3.699707S9.0576172,3.8925781,8.1591797,4.2719727
		c-0.8671875,0.3671875-1.6484375,0.894043-2.3212891,1.565918C5.1650391,6.5112305,4.6386719,7.2924805,4.2724609,8.159668
		C3.8925781,9.0581055,3.7001953,10.0136719,3.7001953,11c0,0.9858398,0.1923828,1.9418945,0.5722656,2.8408203
		c0.3652344,0.8662109,0.8925781,1.6469727,1.5664062,2.3212891c0.5986228,0.5991211,1.2871094,1.0844727,2.046875,1.4428711
		L6.5605469,20.7392578z"/>
	<path fill="#4D4D4D" d="M11,0.4001928c1.4324646,0,2.8203735,0.28004,4.1252747,0.8323699
		c1.2617188,0.5332201,2.3955688,1.2976701,3.3699951,2.27211c0.9750977,0.97558,1.7394104,2.1092498,2.2717285,3.3697002
		c0.5526123,1.3048902,0.8327942,2.6929498,0.8327942,4.1256299c0,1.4326696-0.2801819,2.8207302-0.8328552,4.1258001
		c-0.5322571,1.2602596-1.2965698,2.39394-2.271637,3.3694992c-0.8787842,0.8787766-1.8887939,1.5877876-3.0044556,2.1094894
		l-1.247467-2.950592c0.7351379-0.3583412,1.4038086-0.8358898,1.9899597-1.421566
		c0.6814575-0.6824903,1.215271-1.4743404,1.5866089-2.3534803c0.3850403-0.9107809,0.5802612-1.8794603,0.5802612-2.8791504
		c0-0.9995203-0.1952209-1.9683599-0.5802002-2.8795404c-0.3706665-0.8780794-0.9048462-1.6697898-1.5877686-2.3531895
		c-0.6806946-0.6807003-1.4721985-1.2147102-2.3526001-1.5872302c-0.9105835-0.38502-1.879425-0.58024-2.8796387-0.58024
		s-1.9690552,0.19522-2.8796692,0.58025C7.2407227,4.5521626,6.4489136,5.086143,5.7666626,5.7673726
		C5.0852051,6.4498429,4.5513916,7.241693,4.1800537,8.1208525c-0.3850403,0.9107704-0.5802612,1.8794508-0.5802612,2.8791504
		c0,0.9995098,0.1952209,1.9683504,0.5802002,2.87953c0.3706665,0.8780699,0.9048462,1.6697903,1.5877075,2.3531504
		c0.584137,0.5845776,1.2525024,1.0621262,1.9889526,1.4214439l-1.2474976,2.9506645
		c-1.1156616-0.5217018-2.1256714-1.230711-3.004425-2.1094589c-0.9750977-0.9755898-1.7394104-2.1092701-2.2717285-3.36971
		c-0.5526123-1.3048897-0.8327942-2.6929502-0.8327942-4.1256199c0-1.4326801,0.2801819-2.8207397,0.8328552-4.1258101
		c0.5322571-1.2602701,1.2965698-2.39394,2.271637-3.3694899c0.9744568-0.9744699,2.1083069-1.73892,3.3701477-2.2721801
		C8.1796265,0.6802328,9.5675354,0.4001928,11,0.4001928 M11,0.2001928c-1.4589844,0-2.8730469,0.28516-4.203125,0.84815
		c-1.2871094,0.5439399-2.4414062,1.32275-3.4335938,2.31494c-0.9921875,0.9926698-1.7714844,2.1474597-2.3144531,3.4331
		c-0.5634766,1.3305702-0.8486328,2.74512-0.8486328,4.20362c0,1.4584904,0.2851562,2.8730402,0.8486328,4.2036104
		c0.5429688,1.2856388,1.3222656,2.4404297,2.3144531,3.4331093c0.9443359,0.9443302,2.0371094,1.6962795,3.25,2.2353497
		L8.015625,17.555172c-0.7841797-0.35742-1.4921875-0.8491192-2.1064453-1.4638596
		c-0.6630859-0.6635799-1.1835938-1.4335995-1.5449219-2.2895594c-0.3740234-0.8852501-0.5644531-1.82763-0.5644531-2.8017502
		s0.1904297-1.9165096,0.5644531-2.8012705C4.7255859,7.3432627,5.2451172,6.572753,5.9082031,5.9086928
		C6.5712891,5.246583,7.3417969,4.726563,8.1982422,4.364253C9.0839844,3.9897428,10.0263672,3.7998028,11,3.7998028
		s1.9160156,0.18994,2.8017578,0.5644503c0.8574219,0.3627996,1.6269531,0.8823299,2.2890625,1.5444398
		c0.6630859,0.6635699,1.1835938,1.4335899,1.5449219,2.2895503c0.3740234,0.8852501,0.5644531,1.8276396,0.5644531,2.8017597
		s-0.1904297,1.9165001-0.5644531,2.8012695c-0.3613281,0.8554707-0.8808594,1.6259708-1.5439453,2.29004
		c-0.6152344,0.6147404-1.3232422,1.1069298-2.1074219,1.4638596l1.4023438,3.3169003
		c1.2128906-0.5390701,2.3056641-1.2910194,3.25-2.2353497c0.9921875-0.9926796,1.7714844-2.1474705,2.3144531-3.4331093
		c0.5634766-1.3305702,0.8486328-2.74512,0.8486328-4.2036104c0-1.4584999-0.2851562-2.8730497-0.8486328-4.20362
		c-0.5429688-1.2856402-1.3222656-2.4404302-2.3144531-3.4331c-0.9921875-0.9921901-2.1464844-1.7710001-3.4335938-2.31494
		C13.8730469,0.4853528,12.4589844,0.2001928,11,0.2001928L11,0.2001928z"/>
</g>
<g>
	<path fill="#4D4D4D" d="M6.5605469,20.7392578c-1.1630859-0.53125-2.2148438-1.2617188-3.1269531-2.1728516
		c-0.9833984-0.9853516-1.7548828-2.1293945-2.2929688-3.4018555C0.5830078,13.847168,0.2998047,12.4462891,0.2998047,11
		S0.5830078,8.152832,1.140625,6.8354492c0.5-1.1816406,1.2001953-2.253418,2.0839844-3.1865234l2.4052734,2.4057617
		C5.0566406,6.6762695,4.5996094,7.3837891,4.2724609,8.159668C3.8925781,9.0581055,3.7001953,10.0136719,3.7001953,11
		c0,0.9858398,0.1923828,1.9418945,0.5722656,2.8408203c0.3652344,0.8657227,0.8925781,1.6469727,1.5664062,2.3212891
		c0.5986228,0.5991211,1.2871094,1.0844727,2.046875,1.4433594L6.5605469,20.7392578z"/>
	<path fill="#4D4D4D" d="M3.226593,3.792666l2.26474,2.2651749C4.9407349,6.6705012,4.5000305,7.363667,4.1800537,8.1208544
		c-0.3850403,0.9107704-0.5802612,1.8794508-0.5802612,2.8791504c0,0.9995098,0.1952209,1.9683504,0.5802002,2.87953
		c0.3706665,0.8780804,0.9048462,1.6697903,1.5877075,2.3531294c0.584137,0.584589,1.2524719,1.0621471,1.9889526,1.4214649
		l-1.2474976,2.9506645c-1.1156616-0.5217018-2.1256714-1.2307205-3.004425-2.1094685
		c-0.9750977-0.9755802-1.7394104-2.109251-2.2717285-3.3697004c-0.5526123-1.3048897-0.8327942-2.6929502-0.8327942-4.1256199
		c0-1.4326801,0.2801819-2.8207397,0.8328552-4.1257601C1.7144775,5.7351685,2.3847046,4.6993566,3.226593,3.792666
		 M3.2226562,3.5058548c-0.9257812,0.9599702-1.65625,2.0659201-2.1738281,3.29053
		c-0.5634766,1.3305702-0.8486328,2.74512-0.8486328,4.20362c0,1.4584904,0.2851562,2.8730402,0.8486328,4.2036104
		c0.5429688,1.2856388,1.3222656,2.4404297,2.3144531,3.4330997c0.9443359,0.9443398,2.0371094,1.6962891,3.25,2.2353592
		l1.4023438-3.3168983c-0.7841797-0.3574219-1.4921875-0.8491211-2.1064453-1.463871
		c-0.6630859-0.6635704-1.1835938-1.4335899-1.5449219-2.2895498c-0.3740234-0.8852501-0.5644531-1.82763-0.5644531-2.8017502
		c0-0.9741297,0.1904297-1.9165096,0.5644531-2.8012695C4.7001953,7.4038048,5.171875,6.6826148,5.7685547,6.0522447
		L3.2226562,3.5058548L3.2226562,3.5058548z"/>
</g>
<g>
	<g>
		<g>
			
				<rect x="6.4914484" y="1.0469334" transform="matrix(0.7074286 -0.7067848 0.7067848 0.7074286 -3.0030472 7.2453332)" fill="#4D4D4D" width="1.5171033" height="12.4061337"/>
			<path d="M3.3999939,2.4687805l8.6312256,8.6312199l-0.9312134,0.9312191L2.4687805,3.3999994L3.3999939,2.4687805
				 M3.3999939,2.18594L2.1859436,3.4000001l8.9140625,8.9140606l1.2140503-1.2140598L3.3999939,2.18594L3.3999939,2.18594z"/>
		</g>
	</g>
</g>
<circle fill="#4D4D4D" stroke="#000000" stroke-width="0.2" stroke-miterlimit="10" cx="11" cy="11" r="1.5"/>
</svg>
