<svg xmlns="http://www.w3.org/2000/svg" viewBox="0 0 20 24"><defs><style>.a{fill:#4d4d4d;}</style></defs><title>BB_Buttons_1.8</title><path class="a" d="M19,1V23H1V1H19m0-1H1A1,1,0,0,0,0,1V23a1,1,0,0,0,1,1H19a1,1,0,0,0,1-1V1a1,1,0,0,0-1-1h0Z"/><path class="a" d="M2,0H18a1,1,0,0,1,1,1V5a0,0,0,0,1,0,0H1A0,0,0,0,1,1,5V1A1,1,0,0,1,2,0Z"/><rect class="a" x="3.5" y="7.33" width="13" height="3"/><rect class="a" x="3.5" y="12.33" width="13" height="3"/><rect class="a" x="3.5" y="17.33" width="13" height="3"/></svg>