<?xml version="1.0" encoding="utf-8"?>
<!-- Generator: Adobe Illustrator 21.0.2, SVG Export Plug-In . SVG Version: 6.00 Build 0)  -->
<svg version="1.1" id="Layer_1" xmlns="http://www.w3.org/2000/svg" xmlns:xlink="http://www.w3.org/1999/xlink" x="0px" y="0px"
	 viewBox="0 0 30 26" enable-background="new 0 0 30 26" xml:space="preserve">
<g>
	<g>
		<path d="M14,23.25c-0.4130859,0-0.75-0.3369141-0.75-0.75v-19c0-0.4130859,0.3369141-0.75,0.75-0.75h2
			c0.4130859,0,0.75,0.3369141,0.75,0.75v19c0,0.4130859-0.3369141,0.75-0.75,0.75H14z"/>
		<path fill="#4D4D4D" d="M15.9995117,3c0.2762451,0,0.5,0.2238617,0.5,0.5v19c0,0.2761383-0.2237549,0.5-0.5,0.5h-2
			c-0.276123,0-0.5-0.2238617-0.5-0.5v-19c0-0.2761383,0.223877-0.5,0.5-0.5H15.9995117 M15.9995117,2.5h-2
			c-0.5513916,0-1,0.4486008-1,1v19c0,0.5513992,0.4486084,1,1,1h2c0.5513916,0,1-0.4486008,1-1v-19
			C16.9995117,2.9486008,16.5509033,2.5,15.9995117,2.5L15.9995117,2.5z"/>
	</g>
	<g>
		<path d="M4.9990234,23.25c-0.4130859,0-0.75-0.3369141-0.75-0.75v-19c0-0.4130859,0.3369141-0.75,0.75-0.75h2
			c0.4130859,0,0.75,0.3369141,0.75,0.75v19c0,0.4130859-0.3369141,0.75-0.75,0.75H4.9990234z"/>
		<path fill="#4D4D4D" d="M6.9993896,3c0.2762451,0,0.5,0.2238617,0.5,0.5v19c0,0.2761383-0.2237549,0.5-0.5,0.5h-2
			c-0.276123,0-0.5-0.2238617-0.5-0.5v-19c0-0.2761383,0.223877-0.5,0.5-0.5H6.9993896 M6.9993896,2.5h-2
			c-0.5513916,0-1,0.4486008-1,1v19c0,0.5513992,0.4486084,1,1,1h2c0.5513916,0,1-0.4486008,1-1v-19
			C7.9993896,2.9486008,7.5507812,2.5,6.9993896,2.5L6.9993896,2.5z"/>
	</g>
	<g>
		<rect x="3.999433" y="7.4976063" width="4" height="5"/>
	</g>
	<g>
		<rect x="12.9994335" y="15.4976063" width="4" height="5"/>
	</g>
	<g>
		<path d="M23,23.25c-0.4130859,0-0.75-0.3369141-0.75-0.75v-19c0-0.4130859,0.3369141-0.75,0.75-0.75h2
			c0.4130859,0,0.75,0.3369141,0.75,0.75v19c0,0.4130859-0.3369141,0.75-0.75,0.75H23z"/>
		<path fill="#4D4D4D" d="M24.9996338,3c0.2762451,0,0.5,0.2238617,0.5,0.5v19c0,0.2761383-0.2237549,0.5-0.5,0.5h-2
			c-0.276123,0-0.5-0.2238617-0.5-0.5v-19c0-0.2761383,0.223877-0.5,0.5-0.5H24.9996338 M24.9996338,2.5h-2
			c-0.5513916,0-1,0.4486008-1,1v19c0,0.5513992,0.4486084,1,1,1h2c0.5513916,0,1-0.4486008,1-1v-19
			C25.9996338,2.9486008,25.5510254,2.5,24.9996338,2.5L24.9996338,2.5z"/>
	</g>
	<g>
		<path fill="#1A1A1A" d="M9.9990234,10.9995594c0,0.5522852-0.4477148,1-1,1h-3h-3c-0.5522847,0-1-0.4477148-1-1v-1v-1
			c0-0.5522852,0.4477153-1,1-1h3h3c0.5522852,0,1,0.4477148,1,1v1V10.9995594z"/>
		<path fill="#4D4D4D" d="M8.9990234,8.4995613c0.2757568,0,0.5,0.2243004,0.5,0.5v1v1c0,0.2756996-0.2242432,0.5-0.5,0.5h-3h-3
			c-0.2757568,0-0.5-0.2243004-0.5-0.5v-1v-1c0-0.2756996,0.2242432-0.5,0.5-0.5h3H8.9990234 M8.9990234,7.9995613h-3h-3
			c-0.5522461,0-1,0.4477081-1,1v1v1c0,0.5522804,0.4477539,1,1,1h3h3c0.5522461,0,1-0.4477196,1-1v-1v-1
			C9.9990234,8.4472694,9.5512695,7.9995613,8.9990234,7.9995613L8.9990234,7.9995613z"/>
	</g>
	<line fill="none" stroke="#B3B3B3" stroke-miterlimit="10" x1="2.499433" y1="10" x2="9.4994335" y2="10"/>
	<g>
		<path fill="#1A1A1A" d="M19,18.9995594c0,0.5522842-0.4477158,1-1,1h-3h-3c-0.5522852,0-1-0.4477158-1-1v-1v-1
			c0-0.5522842,0.4477148-1,1-1h3h3c0.5522842,0,1,0.4477158,1,1v1V18.9995594z"/>
		<path fill="#4D4D4D" d="M18,16.4995613c0.2757568,0,0.5,0.2243004,0.5,0.5v1v1c0,0.2756996-0.2242432,0.5-0.5,0.5h-3h-3
			c-0.2757568,0-0.5-0.2243004-0.5-0.5v-1v-1c0-0.2756996,0.2242432-0.5,0.5-0.5h3H18 M18,15.9995613h-3h-3
			c-0.5522461,0-1,0.4477081-1,1v1v1c0,0.5522804,0.4477539,1,1,1h3h3c0.5522461,0,1-0.4477196,1-1v-1v-1
			C19,16.4472694,18.5522461,15.9995613,18,15.9995613L18,15.9995613z"/>
	</g>
	<line fill="none" stroke="#B3B3B3" stroke-miterlimit="10" x1="11.5" y1="18" x2="18.5" y2="18"/>
	<g>
		<rect x="21.9994335" y="5.4976063" width="4" height="5"/>
	</g>
	<g>
		<path fill="#1A1A1A" d="M28.0009766,8.9995594c0,0.5522852-0.4477158,1-1,1h-3h-3c-0.5522842,0-1-0.4477148-1-1v-1v-1
			c0-0.5522847,0.4477158-1,1-1h3h3c0.5522842,0,1,0.4477153,1,1v1V8.9995594z"/>
		<path fill="#4D4D4D" d="M27.0009766,6.4995613c0.2757568,0,0.5,0.2243004,0.5,0.5v1v1c0,0.2756996-0.2242432,0.5-0.5,0.5h-3h-3
			c-0.2757568,0-0.5-0.2243004-0.5-0.5v-1v-1c0-0.2756996,0.2242432-0.5,0.5-0.5h3H27.0009766 M27.0009766,5.9995613h-3h-3
			c-0.5522461,0-1,0.4477081-1,1v1v1c0,0.5522804,0.4477539,1,1,1h3h3c0.5522461,0,1-0.4477196,1-1v-1v-1
			C28.0009766,6.4472694,27.5532227,5.9995613,27.0009766,5.9995613L27.0009766,5.9995613z"/>
	</g>
	<line fill="none" stroke="#B3B3B3" stroke-miterlimit="10" x1="20.5005665" y1="8" x2="27.5005665" y2="8"/>
</g>
</svg>
